# This file uses centimeters as units for non-parametric coordinates.

g default
v 2579.500977 0.000000 -325.866882
v 2518.318604 0.000000 -646.594482
v 2417.421143 0.000000 -957.124878
v 2278.399414 0.000000 -1252.560913
v 2103.446045 0.000000 -1528.243164
v 1895.320068 0.000000 -1779.824219
v 1657.303833 0.000000 -2003.336426
v 1393.150757 0.000000 -2195.254883
v 1107.026855 0.000000 -2352.552490
v 803.444702 0.000000 -2472.749268
v 487.191620 0.000000 -2553.949219
v 163.255249 0.000000 -2594.871582
v -163.255676 0.000000 -2594.871582
v -487.191986 0.000000 -2553.948730
v -803.445007 0.000000 -2472.748779
v -1107.027100 0.000000 -2352.552002
v -1393.150757 0.000000 -2195.253906
v -1657.303589 0.000000 -2003.335693
v -1895.319824 0.000000 -1779.823486
v -2103.445557 0.000000 -1528.242432
v -2278.398926 0.000000 -1252.560059
v -2417.420410 0.000000 -957.124207
v -2518.317871 0.000000 -646.593872
v -2579.499756 0.000000 -325.866364
v -2600.001465 0.000000 0.000252
v -2579.499756 0.000000 325.866821
v -2518.317627 0.000000 646.594299
v -2417.420166 0.000000 957.124573
v -2278.398438 0.000000 1252.560425
v -2103.445068 0.000000 1528.242554
v -1895.319092 0.000000 1779.823486
v -1657.302856 0.000000 2003.335449
v -1393.150024 0.000000 2195.253662
v -1107.026245 0.000000 2352.551270
v -803.444214 0.000000 2472.747803
v -487.191284 0.000000 2553.947754
v -163.255157 0.000000 2594.870361
v 163.255630 0.000000 2594.870117
v 487.191772 0.000000 2553.947510
v 803.444580 0.000000 2472.747314
v 1107.026489 0.000000 2352.550537
v 1393.150024 0.000000 2195.252686
v 1657.302734 0.000000 2003.334595
v 1895.318726 0.000000 1779.822510
v 2103.444336 0.000000 1528.241577
v 2278.397461 0.000000 1252.559448
v 2417.418945 0.000000 957.123840
v 2518.316162 0.000000 646.593689
v 2579.498291 0.000000 325.866425
v 2600.000000 0.000000 0.000000
v 0.000000 0.000000 0.000000
v 0.000000 -2000.000000 0.000000
vt 0.748029 0.218667
vt 0.742146 0.187827
vt 0.732444 0.157969
vt 0.719077 0.129561
vt 0.702254 0.103054
vt 0.682242 0.078863
vt 0.659356 0.057371
vt 0.633957 0.038918
vt 0.606445 0.023793
vt 0.577254 0.012236
vt 0.546845 0.004428
vt 0.515698 0.000493
vt 0.484302 0.000493
vt 0.453155 0.004428
vt 0.422746 0.012236
vt 0.393555 0.023793
vt 0.366043 0.038918
vt 0.340644 0.057372
vt 0.317758 0.078863
vt 0.297746 0.103054
vt 0.280923 0.129562
vt 0.267556 0.157969
vt 0.257854 0.187828
vt 0.251971 0.218667
vt 0.250000 0.250000
vt 0.251971 0.281333
vt 0.257854 0.312173
vt 0.267556 0.342031
vt 0.280923 0.370439
vt 0.297746 0.396946
vt 0.317758 0.421137
vt 0.340644 0.442628
vt 0.366043 0.461082
vt 0.393555 0.476207
vt 0.422746 0.487764
vt 0.453155 0.495572
vt 0.484302 0.499507
vt 0.515698 0.499507
vt 0.546845 0.495572
vt 0.577254 0.487764
vt 0.606445 0.476207
vt 0.633957 0.461082
vt 0.659356 0.442628
vt 0.682242 0.421137
vt 0.702254 0.396946
vt 0.719077 0.370438
vt 0.732444 0.342031
vt 0.742146 0.312172
vt 0.748029 0.281333
vt 0.750000 0.250000
vt 0.250000 0.500000
vt 0.260000 0.500000
vt 0.270000 0.500000
vt 0.280000 0.500000
vt 0.290000 0.500000
vt 0.300000 0.500000
vt 0.310000 0.500000
vt 0.320000 0.500000
vt 0.330000 0.500000
vt 0.340000 0.500000
vt 0.350000 0.500000
vt 0.360000 0.500000
vt 0.370000 0.500000
vt 0.380000 0.500000
vt 0.390000 0.500000
vt 0.400000 0.500000
vt 0.410000 0.500000
vt 0.420000 0.500000
vt 0.430000 0.500000
vt 0.440000 0.500000
vt 0.450000 0.500000
vt 0.460000 0.500000
vt 0.470000 0.500000
vt 0.480000 0.500000
vt 0.490000 0.500000
vt 0.500000 0.500000
vt 0.510000 0.500000
vt 0.520000 0.500000
vt 0.530000 0.500000
vt 0.540000 0.500000
vt 0.550000 0.500000
vt 0.560000 0.500000
vt 0.570000 0.500000
vt 0.580000 0.500000
vt 0.590000 0.500000
vt 0.600000 0.500000
vt 0.610000 0.500000
vt 0.620000 0.500000
vt 0.630000 0.500000
vt 0.640000 0.500000
vt 0.650000 0.500000
vt 0.660000 0.500000
vt 0.670000 0.500000
vt 0.680000 0.500000
vt 0.690000 0.500000
vt 0.700000 0.500000
vt 0.710000 0.500000
vt 0.720000 0.500000
vt 0.730000 0.500000
vt 0.740000 0.500000
vt 0.750000 0.500000
vt 0.500000 0.250000
vt 0.500000 1.000000
vn 0.000000 1.000000 0.000000
vn 0.000000 1.000000 0.000000
vn 0.000000 1.000000 0.000000
vn 0.000000 1.000000 0.000000
vn 0.000000 1.000000 0.000000
vn 0.000000 1.000000 0.000000
vn 0.000000 1.000000 0.000000
vn 0.000000 1.000000 0.000000
vn 0.000000 1.000000 0.000000
vn 0.000000 1.000000 0.000000
vn 0.000000 1.000000 0.000000
vn 0.000000 1.000000 0.000000
vn 0.000000 1.000000 0.000000
vn 0.000000 1.000000 0.000000
vn 0.000000 1.000000 0.000000
vn 0.000000 1.000000 0.000000
vn 0.000000 1.000000 0.000000
vn 0.000000 1.000000 0.000000
vn 0.000000 1.000000 0.000000
vn 0.000000 1.000000 0.000000
vn 0.000000 1.000000 0.000000
vn 0.000000 1.000000 0.000000
vn 0.000000 1.000000 0.000000
vn 0.000000 1.000000 0.000000
vn 0.000000 1.000000 0.000000
vn 0.000000 1.000000 0.000000
vn 0.000000 1.000000 0.000000
vn 0.000000 1.000000 0.000000
vn 0.000000 1.000000 0.000000
vn 0.000000 1.000000 0.000000
vn 0.000000 1.000000 0.000000
vn 0.000000 1.000000 0.000000
vn 0.000000 1.000000 0.000000
vn 0.000000 1.000000 0.000000
vn 0.000000 1.000000 0.000000
vn 0.000000 1.000000 0.000000
vn 0.000000 1.000000 0.000000
vn 0.000000 1.000000 0.000000
vn 0.000000 1.000000 0.000000
vn 0.000000 1.000000 0.000000
vn 0.000000 1.000000 0.000000
vn 0.000000 1.000000 0.000000
vn 0.000000 1.000000 0.000000
vn 0.000000 1.000000 0.000000
vn 0.000000 1.000000 0.000000
vn 0.000000 1.000000 0.000000
vn 0.000000 1.000000 0.000000
vn 0.000000 1.000000 0.000000
vn 0.000000 1.000000 0.000000
vn 0.000000 1.000000 0.000000
vn 0.000000 1.000000 0.000000
vn 0.604903 -0.792624 -0.076415
vn 0.000000 -1.000000 0.000000
vn 0.590555 -0.792624 -0.151629
vn 0.566894 -0.792624 -0.224449
vn 0.534293 -0.792624 -0.293730
vn 0.493266 -0.792624 -0.358379
vn 0.444460 -0.792624 -0.417375
vn 0.388644 -0.792624 -0.469790
vn 0.326699 -0.792624 -0.514796
vn 0.259602 -0.792624 -0.551683
vn 0.188411 -0.792624 -0.579869
vn 0.114248 -0.792624 -0.598911
vn 0.038284 -0.792624 -0.608507
vn -0.038284 -0.792624 -0.608507
vn -0.114248 -0.792624 -0.598911
vn -0.188411 -0.792624 -0.579869
vn -0.259602 -0.792624 -0.551682
vn -0.326699 -0.792624 -0.514796
vn -0.388644 -0.792624 -0.469790
vn -0.444460 -0.792624 -0.417375
vn -0.493266 -0.792624 -0.358379
vn -0.534293 -0.792624 -0.293730
vn -0.566895 -0.792624 -0.224449
vn -0.590555 -0.792624 -0.151629
vn -0.604903 -0.792624 -0.076417
vn -0.609711 -0.792624 0.000000
vn -0.604903 -0.792624 0.076417
vn -0.590555 -0.792624 0.151629
vn -0.566894 -0.792624 0.224450
vn -0.534293 -0.792624 0.293731
vn -0.493266 -0.792624 0.358379
vn -0.444460 -0.792624 0.417376
vn -0.388644 -0.792624 0.469790
vn -0.326699 -0.792624 0.514796
vn -0.259602 -0.792624 0.551683
vn -0.188411 -0.792624 0.579869
vn -0.114248 -0.792624 0.598911
vn -0.038284 -0.792624 0.608508
vn 0.038284 -0.792624 0.608508
vn 0.114249 -0.792624 0.598911
vn 0.188411 -0.792624 0.579869
vn 0.259602 -0.792624 0.551683
vn 0.326699 -0.792624 0.514796
vn 0.388644 -0.792624 0.469790
vn 0.444460 -0.792624 0.417375
vn 0.493266 -0.792624 0.358379
vn 0.534294 -0.792624 0.293730
vn 0.566895 -0.792624 0.224449
vn 0.590556 -0.792624 0.151629
vn 0.604903 -0.792624 0.076417
vn 0.609711 -0.792624 0.000002
s 1
g pCone1
f 2/2/1 51/102/2 1/1/3
f 3/3/4 51/102/2 2/2/1
f 4/4/5 51/102/2 3/3/4
f 5/5/6 51/102/2 4/4/5
f 6/6/7 51/102/2 5/5/6
f 7/7/8 51/102/2 6/6/7
f 8/8/9 51/102/2 7/7/8
f 9/9/10 51/102/2 8/8/9
f 10/10/11 51/102/2 9/9/10
f 11/11/12 51/102/2 10/10/11
f 12/12/13 51/102/2 11/11/12
f 13/13/14 51/102/2 12/12/13
f 14/14/15 51/102/2 13/13/14
f 15/15/16 51/102/2 14/14/15
f 16/16/17 51/102/2 15/15/16
f 17/17/18 51/102/2 16/16/17
f 18/18/19 51/102/2 17/17/18
f 19/19/20 51/102/2 18/18/19
f 20/20/21 51/102/2 19/19/20
f 21/21/22 51/102/2 20/20/21
f 22/22/23 51/102/2 21/21/22
f 23/23/24 51/102/2 22/22/23
f 24/24/25 51/102/2 23/23/24
f 25/25/26 51/102/2 24/24/25
f 26/26/27 51/102/2 25/25/26
f 27/27/28 51/102/2 26/26/27
f 28/28/29 51/102/2 27/27/28
f 29/29/30 51/102/2 28/28/29
f 30/30/31 51/102/2 29/29/30
f 31/31/32 51/102/2 30/30/31
f 32/32/33 51/102/2 31/31/32
f 33/33/34 51/102/2 32/32/33
f 34/34/35 51/102/2 33/33/34
f 35/35/36 51/102/2 34/34/35
f 36/36/37 51/102/2 35/35/36
f 37/37/38 51/102/2 36/36/37
f 38/38/39 51/102/2 37/37/38
f 39/39/40 51/102/2 38/38/39
f 40/40/41 51/102/2 39/39/40
f 41/41/42 51/102/2 40/40/41
f 42/42/43 51/102/2 41/41/42
f 43/43/44 51/102/2 42/42/43
f 44/44/45 51/102/2 43/43/44
f 45/45/46 51/102/2 44/44/45
f 46/46/47 51/102/2 45/45/46
f 47/47/48 51/102/2 46/46/47
f 48/48/49 51/102/2 47/47/48
f 49/49/50 51/102/2 48/48/49
f 50/50/51 51/102/2 49/49/50
f 1/1/3 51/102/2 50/50/51
s 2
f 1/51/52 52/103/53 2/52/54
f 2/52/54 52/103/53 3/53/55
f 3/53/55 52/103/53 4/54/56
f 4/54/56 52/103/53 5/55/57
f 5/55/57 52/103/53 6/56/58
f 6/56/58 52/103/53 7/57/59
f 7/57/59 52/103/53 8/58/60
f 8/58/60 52/103/53 9/59/61
f 9/59/61 52/103/53 10/60/62
f 10/60/62 52/103/53 11/61/63
f 11/61/63 52/103/53 12/62/64
f 12/62/64 52/103/53 13/63/65
f 13/63/65 52/103/53 14/64/66
f 14/64/66 52/103/53 15/65/67
f 15/65/67 52/103/53 16/66/68
f 16/66/68 52/103/53 17/67/69
f 17/67/69 52/103/53 18/68/70
f 18/68/70 52/103/53 19/69/71
f 19/69/71 52/103/53 20/70/72
f 20/70/72 52/103/53 21/71/73
f 21/71/73 52/103/53 22/72/74
f 22/72/74 52/103/53 23/73/75
f 23/73/75 52/103/53 24/74/76
f 24/74/76 52/103/53 25/75/77
f 25/75/77 52/103/53 26/76/78
f 26/76/78 52/103/53 27/77/79
f 27/77/79 52/103/53 28/78/80
f 28/78/80 52/103/53 29/79/81
f 29/79/81 52/103/53 30/80/82
f 30/80/82 52/103/53 31/81/83
f 31/81/83 52/103/53 32/82/84
f 32/82/84 52/103/53 33/83/85
f 33/83/85 52/103/53 34/84/86
f 34/84/86 52/103/53 35/85/87
f 35/85/87 52/103/53 36/86/88
f 36/86/88 52/103/53 37/87/89
f 37/87/89 52/103/53 38/88/90
f 38/88/90 52/103/53 39/89/91
f 39/89/91 52/103/53 40/90/92
f 40/90/92 52/103/53 41/91/93
f 41/91/93 52/103/53 42/92/94
f 42/92/94 52/103/53 43/93/95
f 43/93/95 52/103/53 44/94/96
f 44/94/96 52/103/53 45/95/97
f 45/95/97 52/103/53 46/96/98
f 46/96/98 52/103/53 47/97/99
f 47/97/99 52/103/53 48/98/100
f 48/98/100 52/103/53 49/99/101
f 49/99/101 52/103/53 50/100/102
f 50/100/102 52/103/53 1/101/52
